<?xml version="1.0" standalone="no"?>
<!DOCTYPE svg PUBLIC "-//W3C//DTD SVG 20010904//EN"
 "http://www.w3.org/TR/2001/REC-SVG-20010904/DTD/svg10.dtd">
<svg version="1.0" xmlns="http://www.w3.org/2000/svg"
 width="512.000000pt" height="512.000000pt" viewBox="0 0 512.000000 512.000000"
 preserveAspectRatio="xMidYMid meet">
<metadata>
Created by potrace 1.16, written by Peter Selinger 2001-2019
</metadata>
<g transform="translate(0.000000,512.000000) scale(0.100000,-0.100000)"
fill="#000000" stroke="none">
<path d="M1719 5055 c75 -71 134 -194 162 -345 12 -59 17 -69 67 -115 30 -27
66 -54 81 -59 38 -13 48 -23 54 -55 3 -16 37 -66 75 -112 105 -128 217 -283
256 -352 43 -78 63 -144 71 -244 l7 -79 30 4 30 5 -7 61 c-19 165 -90 294
-320 581 -40 50 -80 105 -89 123 -9 17 -21 32 -26 32 -5 0 -42 30 -83 66 -74
65 -75 67 -87 132 -35 193 -144 366 -248 397 -17 5 -9 -6 27 -40z"/>
<path d="M1551 5048 c-18 -5 -44 -16 -57 -25 -34 -22 -98 -121 -129 -202 -29
-74 -39 -81 -119 -81 -52 0 -214 -38 -325 -76 -105 -36 -228 -93 -303 -140
l-39 -25 -130 41 c-147 45 -199 49 -246 20 -42 -25 -49 -64 -35 -189 15 -124
32 -172 86 -235 42 -49 43 -52 31 -86 -6 -19 -20 -78 -30 -130 -10 -52 -21
-99 -26 -104 -5 -6 -16 -2 -28 8 -35 32 -42 13 -15 -44 l27 -55 -12 -160 c-21
-294 -13 -390 40 -506 57 -124 252 -280 397 -319 23 -6 42 -13 42 -16 0 -3
-17 -46 -39 -97 -84 -199 -107 -295 -110 -446 -2 -119 16 -174 79 -233 69 -65
262 -149 378 -164 42 -5 52 -10 52 -26 0 -10 -6 -21 -14 -24 -21 -8 -48 -52
-57 -92 -10 -44 5 -81 44 -112 27 -22 41 -25 109 -25 91 0 91 2 59 -117 -35
-129 -44 -228 -38 -426 6 -213 20 -298 67 -392 6 -13 -11 -24 -80 -53 -77 -32
-97 -37 -166 -36 -91 1 -118 -7 -168 -52 -75 -65 -88 -143 -36 -203 50 -56
103 -71 260 -71 133 0 136 1 259 43 68 24 176 57 240 73 105 26 119 32 148 65
24 27 34 51 39 88 8 60 40 96 125 139 63 32 82 34 75 10 -3 -10 -7 -30 -10
-44 l-4 -26 78 27 c42 16 102 39 131 53 30 14 57 23 62 20 4 -2 7 -26 7 -54 0
-27 3 -49 8 -49 9 0 169 116 218 158 l38 33 44 -47 c46 -48 100 -78 163 -89
l36 -7 -10 72 c-5 39 -6 74 -3 78 4 3 20 -2 36 -11 24 -15 101 -25 191 -27 20
0 156 -117 189 -161 21 -29 24 -43 22 -95 -3 -57 -1 -63 27 -87 17 -14 47 -31
68 -38 21 -6 86 -36 146 -66 163 -81 258 -98 385 -68 169 40 262 201 176 304
-47 56 -154 86 -218 61 -22 -8 -31 -5 -57 18 l-31 28 -9 149 c-4 82 -11 175
-15 207 -4 32 -3 58 2 58 5 0 45 -7 89 -15 95 -17 337 -19 421 -4 91 16 202
56 279 100 66 38 215 166 215 185 0 5 -21 8 -47 6 -30 -2 -55 2 -66 10 -17 13
-8 19 100 70 65 31 150 68 188 83 84 33 81 31 65 50 -21 25 -67 46 -131 59
l-59 12 68 70 c43 43 80 94 100 134 31 63 70 216 58 227 -3 4 -14 -1 -23 -9
-24 -21 -83 -40 -83 -27 0 5 9 27 20 48 61 122 79 325 40 476 -22 85 -88 227
-172 370 -29 50 -76 137 -103 195 -49 104 -50 106 -49 200 1 154 50 260 187
406 89 95 91 90 -33 119 -41 10 -77 19 -79 21 -6 5 91 136 132 177 46 46 108
76 157 77 l35 1 -53 49 c-56 52 -147 90 -218 90 -19 0 -34 3 -34 6 0 3 20 33
44 67 73 103 119 237 133 381 l6 70 -44 -27 c-75 -47 -226 -119 -251 -119 -13
-1 -66 7 -118 17 -113 21 -341 16 -430 -9 -30 -8 -56 -14 -57 -12 -2 2 9 37
25 77 35 88 47 139 34 139 -35 0 -267 -118 -383 -196 -53 -35 -127 -95 -166
-133 -177 -177 -307 -451 -329 -695 -8 -87 -8 -87 -109 -60 -74 20 -242 13
-402 -16 -60 -11 -110 -20 -113 -20 -3 0 -3 37 -1 82 7 171 -53 301 -258 558
-115 143 -131 167 -131 190 0 16 -5 20 -18 16 -13 -4 -40 17 -99 77 -77 78
-82 85 -88 137 -19 151 -111 321 -196 366 -32 16 -31 16 -78 2z m49 -83 c0 -3
-6 -16 -14 -28 -8 -12 -17 -51 -20 -87 -4 -36 -12 -91 -18 -124 -10 -51 -15
-60 -42 -72 -30 -13 -30 -13 -6 -14 62 -1 100 75 100 197 0 77 14 111 36 92
36 -30 96 -179 109 -273 6 -38 18 -61 59 -108 28 -33 59 -71 69 -84 l18 -23
-37 11 c-20 5 -85 8 -143 6 -97 -3 -113 -6 -173 -36 -151 -74 -238 -241 -238
-453 1 -109 11 -164 46 -234 35 -68 60 -93 124 -123 48 -23 68 -26 160 -26
174 -1 264 42 362 172 65 86 93 177 93 302 0 99 -10 130 -65 220 l-22 35 28
-31 c108 -115 238 -303 276 -398 11 -28 24 -93 28 -146 7 -79 5 -109 -11 -177
-29 -125 -81 -244 -157 -359 -71 -107 -70 -115 10 -44 55 48 119 147 179 275
23 50 42 91 43 92 2 3 235 32 309 38 179 14 378 -29 474 -102 112 -86 127
-128 120 -337 -4 -129 -10 -168 -37 -271 -18 -66 -35 -137 -37 -157 -5 -41 3
-46 75 -48 17 0 40 -1 50 -2 9 0 25 3 36 7 16 7 17 5 11 -16 -30 -103 -152
-146 -279 -98 -100 37 -147 116 -190 319 l-23 105 -39 -3 c-21 -2 -107 -4
-191 -5 -129 -2 -150 -4 -140 -16 36 -44 191 -69 260 -42 50 19 57 15 57 -35
0 -62 27 -178 56 -240 37 -79 153 -173 214 -174 41 0 173 -402 240 -733 16
-82 32 -152 34 -156 6 -9 65 -420 96 -659 22 -171 53 -341 69 -370 5 -9 21
-28 35 -41 l26 -24 -21 -34 c-11 -18 -18 -33 -15 -33 4 0 30 14 59 30 65 36
114 39 169 8 37 -21 76 -73 64 -85 -3 -3 -20 11 -39 31 -21 22 -44 36 -58 36
-22 0 -21 -2 9 -18 19 -9 43 -31 53 -48 l20 -32 -27 -31 c-26 -31 -72 -61 -94
-61 -5 0 -10 11 -10 25 0 40 -42 75 -87 74 l-38 -1 35 -10 c51 -14 72 -36 68
-72 l-3 -31 -77 -3 c-85 -3 -100 1 -307 87 -153 63 -162 70 -155 125 5 32 0
51 -21 88 -38 68 -98 118 -251 210 -16 10 -39 25 -52 34 -23 17 -23 17 -11 -9
7 -15 10 -30 7 -33 -11 -11 -122 16 -165 41 -25 14 -48 23 -52 21 -3 -2 -4
-38 -1 -80 3 -42 2 -76 -1 -76 -8 0 -112 70 -119 80 -3 4 -15 19 -27 34 l-22
28 -38 -23 c-21 -13 -73 -52 -117 -87 -43 -35 -81 -61 -84 -58 -4 5 8 53 25
95 8 20 -26 7 -160 -60 -65 -32 -122 -59 -127 -59 -7 0 4 36 38 122 14 33 14
34 -115 -38 -54 -30 -103 -54 -108 -54 -23 0 -86 -79 -108 -135 -12 -32 -34
-66 -47 -77 -14 -10 -79 -31 -145 -47 -134 -33 -203 -56 -288 -95 -75 -35
-191 -47 -200 -22 -7 18 17 76 31 76 5 0 17 7 28 15 19 14 19 14 -3 15 -38 0
-76 -42 -76 -84 0 -34 -2 -36 -27 -32 -50 7 -90 35 -90 60 0 28 45 86 66 86 8
0 14 5 14 10 0 29 -73 -19 -90 -59 -15 -37 -30 -40 -30 -6 0 37 55 93 103 106
23 6 63 8 90 5 50 -7 108 6 192 44 22 9 51 21 64 25 l24 7 -7 127 c-4 69 -11
158 -16 196 -19 146 -5 491 21 520 6 6 15 1 23 -11 8 -11 54 -44 103 -74 48
-29 120 -74 158 -100 39 -26 75 -50 81 -53 7 -4 -49 53 -123 126 -219 214
-257 287 -234 450 13 90 38 207 49 224 6 9 23 7 72 -8 35 -11 91 -22 125 -25
66 -5 66 -6 -42 42 -68 29 -189 123 -281 216 -71 73 -72 75 -53 92 19 17 20
17 31 -3 17 -32 63 -51 124 -51 69 0 78 13 21 28 -47 13 -110 61 -120 93 -11
34 -46 22 -103 -37 -50 -52 -55 -54 -68 -37 -11 13 -14 39 -11 101 2 45 1 82
-2 82 -3 0 -23 -5 -43 -10 -26 -8 -49 -8 -75 0 -72 19 -72 20 25 121 l91 94
-41 12 c-38 11 -98 57 -98 75 0 4 48 8 106 8 197 0 376 40 508 114 61 34 89
57 49 41 -39 -16 -222 -64 -288 -75 -46 -8 -130 -11 -240 -7 -157 4 -177 7
-262 36 -238 80 -389 195 -443 338 -26 69 -41 314 -18 279 76 -112 140 -165
240 -197 123 -39 328 -14 424 52 93 64 132 164 115 298 -14 110 -53 184 -151
282 -118 120 -252 170 -397 150 -64 -10 -145 -41 -175 -68 -24 -22 -24 -10 4
104 l21 91 -39 45 c-59 67 -86 129 -92 210 -5 67 -4 69 16 58 11 -6 37 -46 57
-88 58 -123 105 -160 139 -111 22 31 20 45 -4 23 -19 -17 -21 -17 -40 0 -11
10 -38 56 -61 103 -32 66 -47 87 -70 95 -16 6 -28 16 -26 22 8 20 90 4 212
-40 l123 -45 88 54 c171 103 399 177 611 199 l118 12 23 75 c30 97 59 153 100
196 28 29 72 46 72 29z m2189 -426 c-16 -40 -45 -90 -63 -109 -38 -40 -81
-109 -73 -116 3 -3 27 10 54 29 78 56 163 96 238 112 85 18 295 32 295 19 0
-5 -26 -17 -58 -26 -54 -16 -133 -69 -121 -82 3 -3 32 3 65 14 32 11 123 31
202 45 146 26 225 50 300 92 l43 24 -7 -28 c-12 -50 -54 -157 -78 -198 -25
-42 -122 -141 -191 -195 -22 -18 -41 -33 -43 -35 -2 -1 46 0 106 3 108 5 236
-10 248 -29 3 -5 1 -9 -4 -9 -19 0 -111 -91 -155 -153 -41 -58 -87 -140 -106
-190 -8 -21 -6 -22 48 -24 31 -2 68 -5 84 -9 l27 -6 -48 -53 c-93 -102 -162
-270 -162 -396 0 -107 58 -255 190 -484 143 -248 164 -311 164 -495 0 -101 -6
-147 -27 -240 -15 -63 -34 -132 -42 -152 -18 -45 -11 -47 55 -13 27 14 52 25
54 25 9 0 -39 -96 -79 -155 -22 -33 -80 -101 -130 -150 l-90 -91 90 1 c142 0
189 -21 94 -43 -97 -23 -195 -76 -259 -142 -33 -34 -60 -65 -60 -68 0 -4 25
-5 55 -4 32 2 55 0 55 -6 0 -27 -203 -129 -330 -168 -108 -32 -450 -28 -547 7
-25 9 -29 27 -42 164 -27 279 -59 473 -107 662 l-33 133 29 47 c73 119 77 248
11 388 l-42 89 33 46 c29 40 33 52 33 112 0 59 -3 70 -31 105 -25 31 -69 62
-106 75 -4 2 3 33 17 69 13 37 31 104 39 149 44 228 -8 371 -173 481 l-64 42
7 86 c9 130 39 233 105 366 73 144 158 255 276 358 79 69 275 211 282 204 1
-2 -11 -37 -28 -78z m-1899 -190 c99 -44 142 -118 148 -260 5 -120 -13 -188
-75 -281 -85 -130 -195 -184 -357 -176 -109 5 -146 21 -169 75 -84 195 -43
478 85 588 38 32 117 63 198 78 42 8 122 -4 170 -24z m-1163 -479 c104 -48
187 -139 262 -287 41 -83 43 -129 5 -190 -63 -101 -178 -149 -341 -141 -113 6
-184 37 -256 112 -74 77 -108 157 -115 264 -4 75 -2 94 16 128 39 77 120 132
212 145 81 11 147 2 217 -31z m84 -1203 c6 -11 29 -39 50 -62 l39 -42 -59 -57
c-33 -31 -66 -56 -75 -56 -28 0 -28 -22 0 -52 37 -38 76 -58 139 -73 48 -11
50 -13 47 -44 -5 -49 15 -96 60 -137 35 -31 42 -34 50 -20 14 25 31 19 56 -18
13 -19 52 -62 88 -96 l65 -63 -16 -33 c-22 -48 -53 -178 -61 -262 -6 -66 -9
-73 -31 -78 -30 -8 -90 1 -109 17 -22 18 -17 64 11 98 19 22 24 36 19 56 -5
19 -1 30 12 40 22 16 29 12 -86 45 -101 30 -244 100 -305 150 -74 61 -87 95
-81 210 5 98 34 211 106 416 28 78 36 91 52 86 10 -2 23 -14 29 -25z m2544
-287 c49 -98 54 -130 29 -203 -18 -54 -29 -59 -37 -18 -3 15 -27 79 -52 142
-64 158 -62 146 -24 158 19 5 35 10 36 10 2 1 23 -39 48 -89z"/>
<path d="M1276 3425 c-74 -32 -95 -47 -96 -68 0 -13 67 -37 103 -37 26 0 36
-6 45 -25 11 -23 9 -27 -26 -49 -21 -13 -79 -44 -129 -69 -49 -25 -104 -57
-121 -72 -55 -47 -54 -145 3 -145 29 0 33 19 9 56 -16 24 -16 26 7 50 13 14
58 43 99 64 41 21 134 71 205 112 72 40 150 82 175 93 25 10 57 27 72 37 42
29 67 23 84 -19 22 -58 29 -68 52 -71 35 -5 38 33 5 74 -76 95 -87 100 -146
60 -19 -13 -46 -27 -58 -31 -13 -4 -64 -28 -112 -54 -85 -44 -89 -45 -102 -27
-13 16 -12 22 5 46 31 44 42 80 29 96 -15 18 -12 19 -103 -21z"/>
<path d="M4826 4686 c8 -21 -24 -191 -52 -281 -14 -44 -41 -108 -59 -143 -18
-34 -30 -64 -26 -66 3 -2 22 -7 41 -11 56 -12 122 -50 168 -98 38 -39 43 -49
40 -83 l-3 -39 -74 -12 c-89 -15 -108 -27 -166 -101 -48 -61 -47 -65 15 -76
59 -10 100 -41 100 -75 0 -24 -17 -47 -89 -118 -120 -120 -184 -249 -185 -378
-1 -54 5 -71 56 -170 30 -60 81 -153 113 -205 82 -137 151 -284 171 -365 29
-119 23 -327 -13 -421 -3 -10 2 -14 19 -14 55 0 60 -39 22 -185 -30 -117 -61
-182 -115 -240 l-40 -44 39 -11 c58 -15 114 -80 110 -126 -3 -34 -6 -36 -73
-59 -38 -13 -94 -34 -124 -48 -54 -23 -54 -24 -55 -68 -1 -42 -5 -48 -77 -115
-135 -125 -248 -187 -429 -235 -72 -20 -110 -23 -250 -23 -91 1 -185 6 -209
12 l-43 10 6 -46 c3 -26 9 -96 12 -155 4 -59 11 -110 16 -113 4 -3 18 -2 29 1
21 7 21 11 15 114 l-7 106 208 1 c192 0 216 2 304 26 171 46 299 120 417 241
43 43 55 63 59 96 7 50 18 59 127 102 99 39 113 50 121 99 10 60 -10 115 -50
140 -19 12 -35 24 -35 27 0 3 16 30 35 61 74 122 111 346 65 392 -20 20 -20
25 -9 108 7 49 9 129 6 182 -11 176 -57 302 -194 535 -100 170 -152 278 -159
329 -8 56 23 161 67 231 17 28 64 84 104 127 63 65 75 83 80 121 11 69 -8 112
-55 131 -22 9 -40 20 -40 25 0 23 89 88 135 100 73 18 85 33 85 103 0 54 -3
61 -40 102 -24 25 -65 54 -100 70 -33 15 -60 31 -60 35 0 5 11 33 24 62 61
134 96 372 62 424 -17 26 -49 35 -40 11z"/>
<path d="M131 3141 c-2 -32 34 -142 66 -203 44 -85 160 -197 263 -255 105 -59
106 -59 123 -27 l15 28 -57 26 c-203 91 -344 234 -397 404 -7 23 -13 35 -13
27z"/>
<path d="M470 2023 c0 -12 9 -47 21 -78 37 -101 143 -182 324 -250 83 -32 91
-31 103 4 10 28 9 29 -36 42 -61 17 -211 82 -259 112 -51 32 -111 100 -134
151 -14 30 -19 35 -19 19z"/>
<path d="M2340 539 c-47 -33 -94 -69 -105 -79 -27 -25 -65 -33 -98 -21 -21 8
-27 17 -27 41 0 17 -5 30 -12 30 -7 0 -57 -18 -113 -40 -105 -41 -140 -43
-150 -9 -14 43 -65 7 -65 -45 0 -89 -87 -171 -212 -201 -40 -10 -134 -37 -208
-60 -220 -70 -321 -83 -453 -60 -122 21 -193 63 -223 130 l-14 30 6 -40 c13
-79 46 -119 134 -159 141 -64 329 -58 565 17 77 24 182 55 233 67 145 35 205
86 232 196 l10 42 78 -1 c57 0 91 5 131 22 l54 22 19 -20 c49 -54 130 -41 243
40 l86 61 76 -38 c60 -31 89 -39 144 -42 87 -5 116 11 125 68 6 36 10 40 35
40 44 0 70 -14 135 -74 56 -51 62 -54 67 -35 8 29 -13 58 -88 124 l-63 55 -71
0 -70 0 -3 -52 c-3 -49 -5 -52 -35 -60 -47 -12 -183 33 -232 78 -21 19 -40 34
-42 34 -2 0 -42 -27 -89 -61z"/>
<path d="M3875 554 c45 -25 96 -75 111 -111 22 -50 17 -127 -10 -187 -56 -121
-210 -194 -386 -183 -83 6 -218 38 -229 55 -9 14 -141 77 -199 97 -31 10 -68
32 -88 51 -33 34 -34 34 -34 11 0 -34 39 -86 80 -108 124 -65 345 -159 397
-169 92 -18 264 -8 333 19 130 52 199 138 208 260 2 36 -1 85 -7 109 -20 72
-99 144 -181 166 -22 6 -21 5 5 -10z"/>
</g>
</svg>
